<?xml version="1.0" encoding="UTF-8"?>
<mxfile host="app.diagrams.net">
  <diagram name="Final Transaction Processor Architecture" id="5678">
    <mxGraphModel dx="827" dy="570" grid="1" gridSize="10" guides="1" tooltips="1" connect="1" arrows="1"
      fold="1" page="1" pageScale="1" pageWidth="850" pageHeight="1100">
      <root>
        <mxCell id="0"/>
        <mxCell id="1" parent="0"/>

        <!-- FileReaderServiceImpl -->
        <mxCell id="2" value="&lt;b&gt;FileReaderServiceImpl&lt;/b&gt;&#xa;- blobContainerClient&#xa;- enrichedBlobContainerClient&#xa;- objectMapper&#xa;- batchConfig&#xa;- fieldMappingConfig" style="shape=swimlane;" vertex="1" parent="1">
          <mxGeometry x="20" y="20" width="280" height="300" as="geometry"/>
        </mxCell>
        <mxCell id="21" value="+ processAndSaveFile()" style="text" vertex="1" parent="2"><mxGeometry y="100" width="280" height="30" as="geometry"/></mxCell>
        <mxCell id="22" value="+ performFileProcessing()" style="text" vertex="1" parent="2"><mxGeometry y="130" width="280" height="30" as="geometry"/></mxCell>
        <mxCell id="23" value="+ submitTransactionBatch()" style="text" vertex="1" parent="2"><mxGeometry y="160" width="280" height="30" as="geometry"/></mxCell>
        <mxCell id="24" value="+ extractField()" style="text" vertex="1" parent="2"><mxGeometry y="190" width="280" height="30" as="geometry"/></mxCell>
        <mxCell id="25" value="+ writeTransactionsToBlobChunk()" style="text" vertex="1" parent="2"><mxGeometry y="220" width="280" height="30" as="geometry"/></mxCell>

        <!-- TransactionProcessingContext -->
        <mxCell id="3" value="&lt;b&gt;TransactionProcessingContext&lt;/b&gt;&#xa;- blockBlobClient: BlockBlobClient&#xa;- blockIds: List&lt;String&gt;&#xa;- transactionCounter: AtomicInteger" style="shape=swimlane;" vertex="1" parent="1">
          <mxGeometry x="320" y="20" width="260" height="120" as="geometry"/>
        </mxCell>

        <!-- FieldMappingConfig -->
        <mxCell id="4" value="&lt;b&gt;FieldMappingConfig&lt;/b&gt;&#xa;- fieldMappings: List&lt;FieldMapping&gt;&#xa;+ getFieldMappings()" style="shape=swimlane;" vertex="1" parent="1">
          <mxGeometry x="320" y="160" width="260" height="100" as="geometry"/>
        </mxCell>

        <!-- TransactionData -->
        <mxCell id="5" value="&lt;b&gt;TransactionData&lt;/b&gt;&#xa;- transactionNumber: String&#xa;- pan: String&#xa;- recordList: List&lt;String&gt;" style="shape=swimlane;" vertex="1" parent="1">
          <mxGeometry x="600" y="20" width="240" height="100" as="geometry"/>
        </mxCell>

        <!-- FieldMapping -->
        <mxCell id="6" value="&lt;b&gt;FieldMapping&lt;/b&gt;&#xa;- fieldName: String&#xa;- start: int&#xa;- length: int&#xa;- recordNumber: int&#xa;- recordType: String" style="shape=swimlane;" vertex="1" parent="1">
          <mxGeometry x="600" y="140" width="240" height="110" as="geometry"/>
        </mxCell>

        <!-- Relationships -->
        <mxCell id="7" style="endArrow=block;endFill=1;" edge="1" parent="1" source="2" target="3"><mxGeometry relative="1" as="geometry"/></mxCell>
        <mxCell id="8" style="endArrow=block;endFill=1;" edge="1" parent="1" source="2" target="4"><mxGeometry relative="1" as="geometry"/></mxCell>
        <mxCell id="9" style="endArrow=block;endFill=1;" edge="1" parent="1" source="4" target="6"><mxGeometry relative="1" as="geometry"/></mxCell>
        <mxCell id="10" style="endArrow=block;endFill=1;" edge="1" parent="1" source="2" target="5"><mxGeometry relative="1" as="geometry"/></mxCell>

      </root>
    </mxGraphModel>
  </diagram>
</mxfile>
